<?xml version="1.0" encoding="utf-8"?>
<!-- Generator: Adobe Illustrator 25.4.1, SVG Export Plug-In . SVG Version: 6.00 Build 0)  -->
<svg version="1.1" xmlns="http://www.w3.org/2000/svg" xmlns:xlink="http://www.w3.org/1999/xlink" x="0px" y="0px"
	 viewBox="0 0 100 100" style="enable-background:new 0 0 100 100;" xml:space="preserve">
<style type="text/css">
	.st0{fill:#470077;}
	.st1{display:none;}
</style>
<g id="Layer_1">
	<g>
		<g>
			<path class="st0" d="M98.1,40.26L75.9,18.05c-0.09-0.09-0.22-0.15-0.35-0.15H24.47c-0.13,0-0.26,0.05-0.35,0.15L1.9,40.26
				c-0.18,0.18-0.2,0.48-0.03,0.68l34.4,40.98c0.25,0.3,0.72,0.21,0.86-0.15l7.25-19.93c0.09-0.25-0.03-0.51-0.27-0.62
				c-4.88-2.23-8.28-7.17-8.28-12.89c0-8.35,7.22-15.02,15.76-14.09c6.32,0.68,11.52,5.68,12.44,11.97
				c0.96,6.61-2.65,12.52-8.13,15.02c-0.24,0.11-0.36,0.38-0.27,0.62l7.25,19.93c0.13,0.36,0.61,0.45,0.86,0.15l34.4-40.98
				C98.3,40.74,98.29,40.45,98.1,40.26z"/>
		</g>
	</g>
</g>
<g id="Guides" class="st1">
</g>
</svg>
