<?xml version="1.0" encoding="utf-8"?>
<!-- Generator: Adobe Illustrator 25.4.1, SVG Export Plug-In . SVG Version: 6.00 Build 0)  -->
<svg version="1.1" xmlns="http://www.w3.org/2000/svg" xmlns:xlink="http://www.w3.org/1999/xlink" x="0px" y="0px"
	 viewBox="0 0 100 100" style="enable-background:new 0 0 100 100;" xml:space="preserve">
<style type="text/css">
	.st0{fill:#470077;}
	.st1{display:none;}
</style>
<g id="Layer_1">
	<g>
		<g>
			<path class="st0" d="M98.1,24.55L75.9,2.33c-0.09-0.09-0.22-0.15-0.35-0.15H24.47c-0.13,0-0.26,0.05-0.35,0.15L1.9,24.55
				c-0.18,0.18-0.2,0.48-0.03,0.68l34.4,40.98c0.25,0.3,0.72,0.21,0.86-0.15l7.25-19.93c0.09-0.25-0.03-0.51-0.27-0.62
				c-4.88-2.23-8.28-7.17-8.28-12.89c0-8.35,7.22-15.02,15.76-14.09c6.32,0.68,11.52,5.68,12.44,11.97
				c0.96,6.61-2.65,12.52-8.13,15.02c-0.24,0.11-0.36,0.38-0.27,0.62l7.25,19.93c0.13,0.36,0.61,0.45,0.86,0.15l34.4-40.98
				C98.3,25.02,98.29,24.73,98.1,24.55z"/>
		</g>
	</g>
	<g>
		<g>
			<path class="st0" d="M12.05,77.07c-0.57,0-1.08-0.1-1.55-0.31c-0.46-0.21-0.86-0.49-1.2-0.85c-0.34-0.36-0.6-0.77-0.78-1.24
				c-0.18-0.47-0.27-0.96-0.27-1.48c0-0.53,0.09-1.02,0.27-1.49c0.18-0.47,0.44-0.88,0.78-1.24c0.34-0.36,0.74-0.64,1.21-0.85
				c0.47-0.21,0.98-0.31,1.54-0.31c0.57,0,1.08,0.1,1.55,0.31c0.46,0.21,0.86,0.49,1.21,0.85s0.6,0.77,0.79,1.24
				c0.18,0.47,0.27,0.97,0.27,1.49c0,0.52-0.09,1.01-0.27,1.48c-0.18,0.47-0.44,0.88-0.78,1.24c-0.34,0.36-0.74,0.64-1.21,0.85
				C13.13,76.97,12.61,77.07,12.05,77.07z M9.55,73.21c0,0.51,0.11,0.98,0.34,1.4c0.23,0.42,0.53,0.75,0.9,0.99
				c0.38,0.24,0.79,0.37,1.26,0.37c0.46,0,0.88-0.12,1.26-0.37c0.38-0.25,0.68-0.58,0.91-1.01c0.23-0.42,0.34-0.89,0.34-1.41
				s-0.11-0.98-0.34-1.4c-0.23-0.42-0.53-0.75-0.91-1c-0.38-0.25-0.8-0.37-1.26-0.37c-0.46,0-0.88,0.13-1.26,0.38
				c-0.38,0.25-0.68,0.59-0.9,1.01C9.66,72.22,9.55,72.69,9.55,73.21z"/>
			<path class="st0" d="M21.47,77.07c-0.62,0-1.17-0.15-1.65-0.46c-0.48-0.31-0.86-0.69-1.14-1.16v4.55h-1.27V69.43h1.13v1.42
				c0.3-0.46,0.69-0.83,1.17-1.11c0.48-0.28,1.01-0.42,1.57-0.42c0.52,0,1,0.11,1.43,0.32c0.43,0.21,0.81,0.5,1.13,0.86
				s0.57,0.78,0.74,1.24c0.18,0.46,0.27,0.95,0.27,1.46c0,0.71-0.14,1.36-0.43,1.95s-0.68,1.06-1.19,1.41
				C22.72,76.9,22.13,77.07,21.47,77.07z M21.08,75.97c0.38,0,0.72-0.08,1.02-0.24s0.56-0.37,0.78-0.63
				c0.22-0.26,0.38-0.56,0.5-0.89c0.12-0.33,0.17-0.68,0.17-1.03c0-0.37-0.06-0.72-0.2-1.06c-0.13-0.33-0.31-0.63-0.55-0.89
				c-0.24-0.26-0.51-0.46-0.82-0.61c-0.31-0.15-0.65-0.22-1.02-0.22c-0.23,0-0.47,0.04-0.72,0.13s-0.48,0.21-0.7,0.36
				c-0.22,0.16-0.41,0.33-0.56,0.54c-0.15,0.2-0.26,0.41-0.3,0.64v2.14c0.14,0.32,0.34,0.62,0.58,0.89s0.52,0.48,0.84,0.63
				C20.41,75.9,20.74,75.97,21.08,75.97z"/>
			<path class="st0" d="M29.74,77.07c-0.57,0-1.09-0.1-1.55-0.31c-0.47-0.21-0.87-0.49-1.21-0.85c-0.34-0.36-0.61-0.77-0.79-1.24
				c-0.19-0.47-0.28-0.96-0.28-1.49c0-0.71,0.16-1.35,0.49-1.94c0.33-0.58,0.78-1.05,1.37-1.41c0.58-0.35,1.25-0.53,2-0.53
				c0.76,0,1.42,0.18,1.99,0.54c0.56,0.36,1,0.83,1.31,1.41c0.31,0.58,0.47,1.2,0.47,1.87c0,0.1,0,0.19-0.01,0.28
				s-0.01,0.16-0.02,0.21h-6.26c0.04,0.49,0.18,0.92,0.41,1.29c0.24,0.38,0.54,0.67,0.92,0.89c0.38,0.21,0.78,0.32,1.21,0.32
				c0.46,0,0.9-0.12,1.31-0.35c0.41-0.23,0.69-0.53,0.85-0.91l1.1,0.3c-0.16,0.37-0.41,0.69-0.73,0.98
				c-0.32,0.29-0.7,0.52-1.14,0.68C30.73,76.99,30.25,77.07,29.74,77.07z M27.2,72.74h5.14c-0.04-0.49-0.18-0.91-0.42-1.29
				c-0.24-0.37-0.55-0.66-0.92-0.87c-0.38-0.21-0.79-0.31-1.24-0.31c-0.44,0-0.85,0.11-1.23,0.31c-0.38,0.21-0.68,0.5-0.92,0.87
				C27.38,71.82,27.24,72.25,27.2,72.74z"/>
			<path class="st0" d="M41.49,76.93h-1.27v-4.18c0-0.79-0.12-1.37-0.37-1.74c-0.25-0.37-0.62-0.55-1.12-0.55
				c-0.35,0-0.69,0.09-1.03,0.26c-0.34,0.17-0.65,0.4-0.91,0.69c-0.27,0.29-0.46,0.63-0.57,1.01v4.52h-1.27v-7.5h1.16v1.62
				c0.2-0.35,0.46-0.66,0.78-0.92s0.68-0.46,1.08-0.6c0.4-0.14,0.83-0.21,1.27-0.21c0.43,0,0.8,0.08,1.09,0.24
				c0.29,0.16,0.52,0.38,0.69,0.66c0.17,0.28,0.29,0.61,0.36,1c0.07,0.38,0.11,0.8,0.11,1.25V76.93z"/>
			<path class="st0" d="M49.71,77.07c-0.63,0-1.21-0.1-1.76-0.31c-0.55-0.21-1.02-0.52-1.42-0.93l0.49-0.9
				c0.43,0.41,0.87,0.69,1.3,0.87s0.88,0.26,1.33,0.26c0.52,0,0.94-0.1,1.27-0.29c0.33-0.19,0.49-0.48,0.49-0.86
				c0-0.28-0.08-0.48-0.25-0.62c-0.17-0.13-0.41-0.25-0.71-0.34c-0.31-0.09-0.67-0.19-1.1-0.31c-0.52-0.15-0.96-0.32-1.31-0.49
				s-0.63-0.39-0.81-0.65s-0.27-0.58-0.27-0.98c0-0.48,0.12-0.88,0.38-1.21c0.25-0.33,0.59-0.58,1.03-0.75
				c0.44-0.17,0.94-0.26,1.5-0.26c0.56,0,1.06,0.09,1.52,0.26c0.45,0.17,0.84,0.43,1.17,0.77l-0.58,0.88
				c-0.3-0.31-0.63-0.54-0.98-0.69c-0.36-0.15-0.76-0.22-1.2-0.22c-0.26,0-0.52,0.03-0.77,0.09c-0.25,0.06-0.46,0.17-0.62,0.33
				c-0.16,0.16-0.25,0.38-0.25,0.67c0,0.24,0.06,0.43,0.19,0.57c0.13,0.14,0.32,0.26,0.58,0.35c0.25,0.1,0.57,0.2,0.93,0.31
				c0.57,0.16,1.06,0.33,1.48,0.49s0.74,0.37,0.98,0.63s0.35,0.62,0.35,1.07c0,0.71-0.27,1.26-0.81,1.65
				C51.31,76.87,50.6,77.07,49.71,77.07z"/>
			<path class="st0" d="M57.47,77.07c-0.57,0-1.08-0.1-1.55-0.31c-0.46-0.21-0.86-0.49-1.2-0.85c-0.34-0.36-0.6-0.77-0.78-1.24
				c-0.18-0.47-0.27-0.96-0.27-1.48c0-0.53,0.09-1.02,0.27-1.49c0.18-0.47,0.44-0.88,0.78-1.24c0.34-0.36,0.74-0.64,1.21-0.85
				c0.47-0.21,0.98-0.31,1.54-0.31c0.57,0,1.08,0.1,1.55,0.31c0.46,0.21,0.86,0.49,1.21,0.85s0.6,0.77,0.79,1.24
				c0.18,0.47,0.27,0.97,0.27,1.49c0,0.52-0.09,1.01-0.27,1.48c-0.18,0.47-0.44,0.88-0.78,1.24c-0.34,0.36-0.74,0.64-1.21,0.85
				C58.56,76.97,58.04,77.07,57.47,77.07z M54.97,73.21c0,0.51,0.11,0.98,0.34,1.4c0.23,0.42,0.53,0.75,0.9,0.99
				c0.38,0.24,0.79,0.37,1.26,0.37c0.46,0,0.88-0.12,1.26-0.37c0.38-0.25,0.68-0.58,0.91-1.01c0.23-0.42,0.34-0.89,0.34-1.41
				s-0.11-0.98-0.34-1.4c-0.23-0.42-0.53-0.75-0.91-1c-0.38-0.25-0.8-0.37-1.26-0.37c-0.46,0-0.88,0.13-1.26,0.38
				c-0.38,0.25-0.68,0.59-0.9,1.01C55.08,72.22,54.97,72.69,54.97,73.21z"/>
			<path class="st0" d="M62.76,73.93v-4.5h1.27v4.25c0,0.77,0.13,1.34,0.41,1.72c0.27,0.38,0.67,0.57,1.2,0.57
				c0.35,0,0.68-0.07,1-0.22c0.32-0.15,0.61-0.36,0.87-0.64c0.26-0.28,0.46-0.61,0.61-0.99v-4.7h1.27v6.06
				c0,0.15,0.03,0.27,0.09,0.34c0.06,0.07,0.17,0.11,0.31,0.12v0.98c-0.14,0.02-0.26,0.03-0.34,0.04s-0.16,0.01-0.24,0.01
				c-0.24,0-0.45-0.07-0.62-0.22c-0.17-0.15-0.27-0.33-0.27-0.55l-0.03-0.88c-0.33,0.56-0.77,0.99-1.32,1.29s-1.16,0.46-1.81,0.46
				c-0.79,0-1.39-0.27-1.79-0.8C62.96,75.74,62.76,74.96,62.76,73.93z"/>
			<path class="st0" d="M75.5,70.5c-0.64,0.01-1.2,0.17-1.68,0.48c-0.49,0.31-0.83,0.74-1.03,1.29v4.65h-1.27v-7.5h1.19v1.71
				c0.26-0.52,0.6-0.94,1.03-1.26c0.43-0.32,0.88-0.5,1.35-0.54c0.1,0,0.18,0,0.25,0s0.12,0,0.17,0.01V70.5z"/>
			<path class="st0" d="M80.09,77.07c-0.57,0-1.09-0.1-1.55-0.31c-0.47-0.21-0.87-0.49-1.21-0.85c-0.34-0.36-0.61-0.78-0.79-1.25
				s-0.28-0.97-0.28-1.49c0-0.71,0.16-1.35,0.48-1.94c0.32-0.58,0.77-1.05,1.34-1.4s1.25-0.52,2.01-0.52c0.74,0,1.39,0.17,1.94,0.5
				c0.55,0.33,0.97,0.78,1.24,1.34l-1.24,0.39c-0.19-0.36-0.46-0.63-0.81-0.83s-0.73-0.3-1.16-0.3c-0.46,0-0.88,0.12-1.26,0.36
				c-0.38,0.24-0.68,0.56-0.9,0.98c-0.22,0.41-0.33,0.89-0.33,1.42c0,0.53,0.11,1,0.34,1.42c0.23,0.42,0.53,0.76,0.91,1.01
				s0.8,0.37,1.26,0.37c0.3,0,0.58-0.05,0.86-0.16c0.27-0.11,0.51-0.25,0.72-0.43c0.21-0.18,0.35-0.37,0.43-0.58l1.24,0.38
				c-0.15,0.37-0.39,0.69-0.7,0.97c-0.31,0.29-0.68,0.51-1.11,0.67C81.08,76.99,80.61,77.07,80.09,77.07z"/>
			<path class="st0" d="M88.1,77.07c-0.57,0-1.09-0.1-1.55-0.31c-0.47-0.21-0.87-0.49-1.21-0.85s-0.61-0.77-0.79-1.24
				c-0.19-0.47-0.28-0.96-0.28-1.49c0-0.71,0.16-1.35,0.49-1.94c0.33-0.58,0.78-1.05,1.37-1.41c0.58-0.35,1.25-0.53,2-0.53
				c0.76,0,1.42,0.18,1.99,0.54c0.56,0.36,1,0.83,1.32,1.41c0.31,0.58,0.47,1.2,0.47,1.87c0,0.1,0,0.19-0.01,0.28
				s-0.01,0.16-0.02,0.21H85.6c0.04,0.49,0.17,0.92,0.41,1.29c0.24,0.38,0.54,0.67,0.92,0.89c0.38,0.21,0.78,0.32,1.21,0.32
				c0.46,0,0.9-0.12,1.31-0.35c0.41-0.23,0.69-0.53,0.85-0.91l1.1,0.3c-0.16,0.37-0.41,0.69-0.73,0.98
				c-0.32,0.29-0.7,0.52-1.14,0.68C89.09,76.99,88.61,77.07,88.1,77.07z M85.56,72.74h5.14c-0.04-0.49-0.18-0.91-0.42-1.29
				c-0.24-0.37-0.55-0.66-0.92-0.87c-0.38-0.21-0.79-0.31-1.24-0.31c-0.44,0-0.85,0.11-1.23,0.31c-0.38,0.21-0.68,0.5-0.92,0.87
				C85.73,71.82,85.59,72.25,85.56,72.74z"/>
			<path class="st0" d="M25.25,96.95c-0.33,0-0.64-0.05-0.94-0.14c-0.3-0.1-0.56-0.25-0.79-0.46l0.59-0.85
				c0.13,0.12,0.29,0.21,0.47,0.26c0.18,0.05,0.35,0.07,0.53,0.07c0.21,0,0.41-0.05,0.59-0.16c0.18-0.11,0.33-0.25,0.45-0.44
				c0.12-0.19,0.17-0.4,0.17-0.63v-7.84h1.27v7.75c0,0.47-0.11,0.89-0.33,1.26s-0.51,0.66-0.86,0.86
				C26.05,96.85,25.66,96.95,25.25,96.95z M26.32,85.35v-1.59h1.27v1.59H26.32z"/>
			<path class="st0" d="M32.98,94.41c-0.57,0-1.09-0.1-1.55-0.31c-0.47-0.21-0.87-0.49-1.21-0.85c-0.34-0.36-0.61-0.77-0.79-1.24
				c-0.19-0.47-0.28-0.96-0.28-1.49c0-0.71,0.16-1.35,0.49-1.94c0.33-0.58,0.78-1.05,1.37-1.41c0.58-0.35,1.25-0.53,2-0.53
				c0.76,0,1.42,0.18,1.99,0.54c0.56,0.36,1,0.83,1.31,1.41c0.31,0.58,0.47,1.2,0.47,1.87c0,0.1,0,0.19-0.01,0.28
				s-0.01,0.16-0.02,0.21h-6.26c0.04,0.49,0.18,0.92,0.41,1.29c0.24,0.38,0.54,0.67,0.92,0.89c0.38,0.21,0.78,0.32,1.21,0.32
				c0.46,0,0.9-0.12,1.31-0.35c0.41-0.23,0.69-0.53,0.85-0.91l1.1,0.3c-0.16,0.37-0.41,0.69-0.73,0.98
				c-0.32,0.29-0.7,0.52-1.14,0.68C33.96,94.33,33.49,94.41,32.98,94.41z M30.44,90.08h5.14c-0.04-0.49-0.18-0.91-0.42-1.29
				c-0.24-0.37-0.55-0.66-0.92-0.87c-0.38-0.21-0.79-0.31-1.24-0.31c-0.44,0-0.85,0.11-1.23,0.31c-0.38,0.21-0.68,0.5-0.92,0.87
				C30.61,89.16,30.48,89.59,30.44,90.08z"/>
			<path class="st0" d="M47.63,86.77h1.23l-3.21,7.5h-1.11l-1.46-3.53l-1.44,3.53h-1.11l-3.21-7.5h1.21l2.6,6.25l1.21-3.07
				l-1.27-3.16h1.11l0.9,2.38l0.9-2.38h1.11l-1.26,3.16l1.21,3.07L47.63,86.77z"/>
			<path class="st0" d="M53.38,94.41c-0.57,0-1.09-0.1-1.55-0.31c-0.47-0.21-0.87-0.49-1.21-0.85c-0.34-0.36-0.61-0.77-0.79-1.24
				c-0.19-0.47-0.28-0.96-0.28-1.49c0-0.71,0.16-1.35,0.49-1.94c0.33-0.58,0.78-1.05,1.37-1.41c0.58-0.35,1.25-0.53,2-0.53
				c0.76,0,1.42,0.18,1.99,0.54c0.56,0.36,1,0.83,1.32,1.41c0.31,0.58,0.47,1.2,0.47,1.87c0,0.1,0,0.19-0.01,0.28
				c0,0.09-0.01,0.16-0.02,0.21h-6.26c0.04,0.49,0.18,0.92,0.41,1.29c0.24,0.38,0.54,0.67,0.92,0.89c0.38,0.21,0.78,0.32,1.21,0.32
				c0.46,0,0.9-0.12,1.31-0.35c0.41-0.23,0.69-0.53,0.85-0.91l1.1,0.3c-0.16,0.37-0.41,0.69-0.73,0.98s-0.7,0.52-1.14,0.68
				C54.37,94.33,53.89,94.41,53.38,94.41z M50.84,90.08h5.14c-0.04-0.49-0.18-0.91-0.42-1.29c-0.24-0.37-0.55-0.66-0.93-0.87
				c-0.38-0.21-0.79-0.31-1.24-0.31c-0.44,0-0.85,0.11-1.23,0.31c-0.38,0.21-0.68,0.5-0.92,0.87
				C51.01,89.16,50.88,89.59,50.84,90.08z"/>
			<path class="st0" d="M58.61,83.72h1.27v8.64c0,0.42,0.06,0.67,0.17,0.77c0.12,0.1,0.25,0.15,0.42,0.15c0.2,0,0.39-0.02,0.58-0.06
				c0.18-0.04,0.34-0.09,0.46-0.14l0.2,1.04c-0.21,0.09-0.46,0.16-0.75,0.22s-0.54,0.09-0.77,0.09c-0.49,0-0.88-0.14-1.16-0.42
				c-0.29-0.28-0.43-0.67-0.43-1.17V83.72z"/>
			<path class="st0" d="M66.7,87.84c-0.64,0.01-1.2,0.17-1.68,0.48c-0.49,0.31-0.83,0.74-1.03,1.29v4.65h-1.27v-7.5h1.19v1.71
				c0.26-0.52,0.6-0.94,1.03-1.26c0.43-0.32,0.88-0.5,1.35-0.54c0.1,0,0.18,0,0.25,0s0.12,0,0.17,0.01V87.84z"/>
			<path class="st0" d="M68.31,96.32c0.12,0.01,0.25,0.02,0.38,0.04s0.22,0.02,0.29,0.02c0.15,0,0.29-0.05,0.4-0.16
				c0.12-0.11,0.24-0.31,0.38-0.61s0.32-0.74,0.54-1.33l-3.19-7.51h1.34L70.99,93l2.3-6.23h1.26l-3.67,9.48
				c-0.09,0.22-0.21,0.43-0.38,0.63c-0.17,0.2-0.38,0.35-0.64,0.47c-0.26,0.12-0.57,0.17-0.94,0.17c-0.09,0-0.18,0-0.27-0.01
				s-0.2-0.03-0.34-0.06V96.32z"/>
		</g>
	</g>
</g>
<g id="Guides" class="st1">
</g>
</svg>
